<mxfile host="Electron" agent="Mozilla/5.0 (Windows NT 10.0; Win64; x64) AppleWebKit/537.36 (KHTML, like Gecko) draw.io/27.0.9 Chrome/134.0.6998.205 Electron/35.4.0 Safari/537.36" version="27.0.9">
  <diagram name="update-db" id="bgQNXmbIjB6IMPsISYZq">
    <mxGraphModel dx="6107" dy="912" grid="0" gridSize="10" guides="1" tooltips="1" connect="1" arrows="1" fold="1" page="1" pageScale="1" pageWidth="4681" pageHeight="3300" background="#99CCFF" math="0" shadow="0">
      <root>
        <mxCell id="dW5WFOGfwR0lU1UXLjn_-0" />
        <mxCell id="dW5WFOGfwR0lU1UXLjn_-1" parent="dW5WFOGfwR0lU1UXLjn_-0" />
        <mxCell id="PpwRb3DP2myml8ZpC41S-78" value="&lt;font&gt;On veut concaténer :&amp;nbsp; &amp;nbsp; &amp;nbsp;&lt;font&gt;&lt;font style=&quot;color: rgb(127, 0, 255);&quot;&gt;partie_1&lt;/font&gt;&amp;nbsp; &amp;nbsp; &amp;nbsp; &amp;nbsp; &amp;nbsp;+&lt;font style=&quot;color: rgb(153, 0, 153);&quot;&gt;&lt;span style=&quot;color: rgb(0, 0, 0);&quot;&gt;&amp;nbsp; &amp;nbsp; &amp;nbsp; &amp;nbsp;&amp;nbsp;&lt;/span&gt;partie_2&lt;/font&gt;&lt;/font&gt;&lt;/font&gt;" style="text;html=1;align=left;verticalAlign=middle;whiteSpace=wrap;rounded=0;fontSize=12;strokeColor=none;sketch=1;curveFitting=1;jiggle=2;fillColor=none;fontColor=#000000;" parent="dW5WFOGfwR0lU1UXLjn_-1" vertex="1">
          <mxGeometry x="-2225" y="1686" width="337" height="34" as="geometry" />
        </mxCell>
        <mxCell id="PpwRb3DP2myml8ZpC41S-51" value="" style="rounded=0;whiteSpace=wrap;html=1;fillColor=none;shadow=0;fillStyle=zigzag-line;dashed=1;dashPattern=1 2;" parent="dW5WFOGfwR0lU1UXLjn_-1" vertex="1">
          <mxGeometry x="-2238.62" y="1322" width="361" height="398" as="geometry" />
        </mxCell>
        <mxCell id="kLFAu0C1lm46THWvdxVZ-93" value="" style="rounded=0;whiteSpace=wrap;html=1;fillColor=none;shadow=0;fillStyle=zigzag-line;dashed=1;dashPattern=1 2;" parent="dW5WFOGfwR0lU1UXLjn_-1" vertex="1">
          <mxGeometry x="-2832" y="1323.75" width="575" height="398" as="geometry" />
        </mxCell>
        <mxCell id="kLFAu0C1lm46THWvdxVZ-76" value="" style="rounded=1;whiteSpace=wrap;html=1;fillColor=none;shadow=1;dashed=1;strokeColor=#FF33FF;strokeWidth=1;" parent="dW5WFOGfwR0lU1UXLjn_-1" vertex="1">
          <mxGeometry x="-3269" y="1522" width="166" height="113" as="geometry" />
        </mxCell>
        <mxCell id="kLFAu0C1lm46THWvdxVZ-75" value="" style="rounded=1;whiteSpace=wrap;html=1;fillColor=none;shadow=1;dashed=1;strokeColor=#FF33FF;strokeWidth=1;" parent="dW5WFOGfwR0lU1UXLjn_-1" vertex="1">
          <mxGeometry x="-3604" y="1525" width="152" height="89" as="geometry" />
        </mxCell>
        <mxCell id="kLFAu0C1lm46THWvdxVZ-57" value="" style="rounded=0;whiteSpace=wrap;html=1;fillColor=none;shadow=0;fillStyle=zigzag-line;dashed=1;dashPattern=1 2;" parent="dW5WFOGfwR0lU1UXLjn_-1" vertex="1">
          <mxGeometry x="-3427" y="1324" width="574" height="398" as="geometry" />
        </mxCell>
        <mxCell id="kLFAu0C1lm46THWvdxVZ-56" value="" style="rounded=0;whiteSpace=wrap;html=1;fillColor=none;shadow=0;glass=0;dashed=1;dashPattern=1 2;" parent="dW5WFOGfwR0lU1UXLjn_-1" vertex="1">
          <mxGeometry x="-3763" y="1323.75" width="321" height="398" as="geometry" />
        </mxCell>
        <mxCell id="kLFAu0C1lm46THWvdxVZ-9" style="edgeStyle=orthogonalEdgeStyle;rounded=0;orthogonalLoop=1;jettySize=auto;html=1;entryX=0.5;entryY=0;entryDx=0;entryDy=0;sketch=1;curveFitting=1;jiggle=2;strokeColor=#00CC00;" parent="dW5WFOGfwR0lU1UXLjn_-1" source="kLFAu0C1lm46THWvdxVZ-10" target="kLFAu0C1lm46THWvdxVZ-13" edge="1">
          <mxGeometry relative="1" as="geometry" />
        </mxCell>
        <mxCell id="kLFAu0C1lm46THWvdxVZ-10" value="61 &lt;font style=&quot;color: rgb(0, 0, 255);&quot;&gt;&lt;b&gt;nouveaux&lt;/b&gt;&lt;/font&gt; fichiers&amp;nbsp;&lt;div&gt;.json&amp;nbsp;&lt;span style=&quot;background-color: transparent; color: light-dark(rgb(0, 0, 0), rgb(255, 255, 255));&quot;&gt;récupérés par API&lt;/span&gt;&lt;/div&gt;" style="text;html=1;align=center;verticalAlign=middle;whiteSpace=wrap;rounded=0;fontSize=13;strokeColor=default;sketch=1;curveFitting=1;jiggle=2;" parent="dW5WFOGfwR0lU1UXLjn_-1" vertex="1">
          <mxGeometry x="-3422" y="1443.5" width="151" height="34" as="geometry" />
        </mxCell>
        <mxCell id="kLFAu0C1lm46THWvdxVZ-12" style="edgeStyle=orthogonalEdgeStyle;rounded=0;orthogonalLoop=1;jettySize=auto;html=1;entryX=0.5;entryY=0;entryDx=0;entryDy=0;curved=0;sketch=1;curveFitting=1;jiggle=2;strokeColor=#D79B00;" parent="dW5WFOGfwR0lU1UXLjn_-1" source="kLFAu0C1lm46THWvdxVZ-13" target="kLFAu0C1lm46THWvdxVZ-15" edge="1">
          <mxGeometry relative="1" as="geometry" />
        </mxCell>
        <mxCell id="kLFAu0C1lm46THWvdxVZ-13" value="1 fichier .json&amp;nbsp;&lt;div&gt;avec toutes les offres&lt;/div&gt;" style="text;html=1;align=center;verticalAlign=middle;whiteSpace=wrap;rounded=0;fontSize=13;strokeColor=default;sketch=1;curveFitting=1;jiggle=2;" parent="dW5WFOGfwR0lU1UXLjn_-1" vertex="1">
          <mxGeometry x="-3411" y="1551" width="129" height="34" as="geometry" />
        </mxCell>
        <mxCell id="kLFAu0C1lm46THWvdxVZ-14" value="DAG 1" style="text;html=1;align=center;verticalAlign=middle;whiteSpace=wrap;rounded=1;fontSize=16;fillColor=#d5e8d4;strokeColor=#00CC00;sketch=1;curveFitting=1;jiggle=2;shadow=1;" parent="dW5WFOGfwR0lU1UXLjn_-1" vertex="1">
          <mxGeometry x="-3330" y="1491" width="53" height="30" as="geometry" />
        </mxCell>
        <mxCell id="kLFAu0C1lm46THWvdxVZ-15" value="base de données avec 3000 offres" style="text;html=1;align=center;verticalAlign=middle;whiteSpace=wrap;rounded=0;fontSize=13;strokeColor=default;sketch=1;curveFitting=1;jiggle=2;" parent="dW5WFOGfwR0lU1UXLjn_-1" vertex="1">
          <mxGeometry x="-3392" y="1652" width="91" height="46" as="geometry" />
        </mxCell>
        <mxCell id="kLFAu0C1lm46THWvdxVZ-16" value="DAG 2" style="text;html=1;align=center;verticalAlign=middle;whiteSpace=wrap;rounded=1;fontSize=16;fillColor=#ffe6cc;strokeColor=#d79b00;glass=0;sketch=1;curveFitting=1;jiggle=2;shadow=1;" parent="dW5WFOGfwR0lU1UXLjn_-1" vertex="1">
          <mxGeometry x="-3332" y="1606" width="54" height="30" as="geometry" />
        </mxCell>
        <mxCell id="kLFAu0C1lm46THWvdxVZ-17" value="json_&lt;font style=&quot;color: rgb(204, 0, 0);&quot;&gt;1&lt;/font&gt;" style="shape=table;startSize=20;container=0;collapsible=0;childLayout=tableLayout;fixedRows=0;rowLines=1;fontStyle=1;align=center;resizeLast=0;html=1;sketch=1;curveFitting=1;jiggle=2;rounded=0;shadow=1;columnLines=1;swimlaneHead=1;swimlaneBody=1;horizontal=1;top=0;bottom=0;left=0;right=0;connectable=1;allowArrows=0;dropTarget=0;expand=0;editable=1;movable=1;resizable=1;rotatable=1;deletable=1;locked=0;fillColor=#e1d5e7;strokeColor=#9673a6;fontSize=13;" parent="dW5WFOGfwR0lU1UXLjn_-1" vertex="1">
          <mxGeometry x="-3590" y="1536" width="123" height="67.04" as="geometry" />
        </mxCell>
        <mxCell id="kLFAu0C1lm46THWvdxVZ-21" value="" style="shape=tableRow;horizontal=0;startSize=0;swimlaneHead=0;swimlaneBody=0;fillColor=none;collapsible=0;dropTarget=0;points=[[0,0.5],[1,0.5]];portConstraint=eastwest;top=0;left=0;right=0;bottom=0;" parent="kLFAu0C1lm46THWvdxVZ-17" vertex="1">
          <mxGeometry y="20" width="123" height="23" as="geometry" />
        </mxCell>
        <mxCell id="kLFAu0C1lm46THWvdxVZ-22" value="&lt;font style=&quot;font-size: 10px;&quot;&gt;offres 1-500&lt;/font&gt;" style="shape=partialRectangle;connectable=0;fillColor=none;top=0;left=0;bottom=0;right=0;editable=1;overflow=hidden;whiteSpace=wrap;html=1;recursiveResize=1;expand=1;part=0;fixedWidth=0;comic=0;fontSize=8;" parent="kLFAu0C1lm46THWvdxVZ-21" vertex="1">
          <mxGeometry width="75" height="23" as="geometry">
            <mxRectangle width="75" height="23" as="alternateBounds" />
          </mxGeometry>
        </mxCell>
        <mxCell id="kLFAu0C1lm46THWvdxVZ-23" value="&lt;font style=&quot;font-size: 10px;&quot;&gt;nouveau&lt;/font&gt;" style="shape=partialRectangle;connectable=0;fillColor=none;top=0;left=0;bottom=0;right=0;align=center;spacingLeft=6;overflow=hidden;whiteSpace=wrap;html=1;fontSize=8;" parent="kLFAu0C1lm46THWvdxVZ-21" vertex="1">
          <mxGeometry x="75" width="48" height="23" as="geometry">
            <mxRectangle width="48" height="23" as="alternateBounds" />
          </mxGeometry>
        </mxCell>
        <mxCell id="kLFAu0C1lm46THWvdxVZ-24" value="" style="shape=tableRow;horizontal=0;startSize=0;swimlaneHead=0;swimlaneBody=0;fillColor=none;collapsible=0;dropTarget=0;points=[[0,0.5],[1,0.5]];portConstraint=eastwest;top=0;left=0;right=0;bottom=0;" parent="kLFAu0C1lm46THWvdxVZ-17" vertex="1">
          <mxGeometry y="43" width="123" height="24" as="geometry" />
        </mxCell>
        <mxCell id="kLFAu0C1lm46THWvdxVZ-25" value="&lt;font style=&quot;font-size: 10px;&quot;&gt;offres 501-2000&lt;/font&gt;" style="shape=partialRectangle;connectable=0;fillColor=none;top=0;left=0;bottom=0;right=0;editable=1;overflow=hidden;whiteSpace=wrap;html=1;" parent="kLFAu0C1lm46THWvdxVZ-24" vertex="1">
          <mxGeometry width="75" height="24" as="geometry">
            <mxRectangle width="75" height="24" as="alternateBounds" />
          </mxGeometry>
        </mxCell>
        <mxCell id="kLFAu0C1lm46THWvdxVZ-26" value="&lt;font style=&quot;font-size: 10px;&quot;&gt;nouveau&lt;/font&gt;" style="shape=partialRectangle;connectable=0;fillColor=none;top=0;left=0;bottom=0;right=0;align=center;spacingLeft=6;overflow=hidden;whiteSpace=wrap;html=1;fontSize=8;" parent="kLFAu0C1lm46THWvdxVZ-24" vertex="1">
          <mxGeometry x="75" width="48" height="24" as="geometry">
            <mxRectangle width="48" height="24" as="alternateBounds" />
          </mxGeometry>
        </mxCell>
        <mxCell id="kLFAu0C1lm46THWvdxVZ-41" value="&lt;font&gt;&lt;b&gt;&lt;u&gt;&lt;span&gt;Extraction &lt;/span&gt;&lt;font style=&quot;color: rgb(204, 0, 0);&quot;&gt;2&lt;/font&gt;&lt;span&gt; :&lt;/span&gt;&lt;br&gt;&lt;/u&gt;&lt;/b&gt;&lt;/font&gt;" style="text;html=1;align=left;verticalAlign=top;whiteSpace=wrap;rounded=0;fontSize=16;" parent="dW5WFOGfwR0lU1UXLjn_-1" vertex="1">
          <mxGeometry x="-3410" y="1326" width="111" height="39" as="geometry" />
        </mxCell>
        <mxCell id="kLFAu0C1lm46THWvdxVZ-42" value="&lt;div&gt;&lt;font&gt;&lt;b&gt;&lt;u&gt;&lt;span&gt;Extraction &lt;/span&gt;&lt;font style=&quot;color: rgb(204, 0, 0);&quot;&gt;1&lt;/font&gt;&lt;span&gt; :&lt;/span&gt;&lt;/u&gt;&lt;/b&gt;&lt;/font&gt;&lt;/div&gt;" style="text;html=1;align=left;verticalAlign=top;whiteSpace=wrap;rounded=0;fontSize=16;" parent="dW5WFOGfwR0lU1UXLjn_-1" vertex="1">
          <mxGeometry x="-3748" y="1326" width="130" height="32" as="geometry" />
        </mxCell>
        <mxCell id="kLFAu0C1lm46THWvdxVZ-43" value="json_&lt;font style=&quot;color: rgb(204, 0, 0);&quot;&gt;2&lt;/font&gt;" style="shape=table;startSize=20;container=0;collapsible=0;childLayout=tableLayout;fixedRows=0;rowLines=1;fontStyle=1;align=center;resizeLast=0;html=1;sketch=1;curveFitting=1;jiggle=2;rounded=0;shadow=1;columnLines=1;swimlaneHead=1;swimlaneBody=1;horizontal=1;top=0;bottom=0;left=0;right=0;connectable=1;allowArrows=0;dropTarget=0;expand=0;editable=1;movable=1;resizable=1;rotatable=1;deletable=1;locked=0;fillColor=#e1d5e7;strokeColor=#9673a6;fontSize=13;" parent="dW5WFOGfwR0lU1UXLjn_-1" vertex="1">
          <mxGeometry x="-3259" y="1531" width="146" height="96.75428571428579" as="geometry" />
        </mxCell>
        <mxCell id="kLFAu0C1lm46THWvdxVZ-44" value="" style="shape=tableRow;horizontal=0;startSize=0;swimlaneHead=0;swimlaneBody=0;fillColor=none;collapsible=0;dropTarget=0;points=[[0,0.5],[1,0.5]];portConstraint=eastwest;top=0;left=0;right=0;bottom=0;labelBackgroundColor=none;labelBorderColor=none;" parent="kLFAu0C1lm46THWvdxVZ-43" vertex="1">
          <mxGeometry y="20" width="146" height="27" as="geometry" />
        </mxCell>
        <mxCell id="kLFAu0C1lm46THWvdxVZ-45" value="&lt;strike&gt;&lt;font style=&quot;font-size: 10px;&quot;&gt;offres 1-500&lt;/font&gt;&lt;/strike&gt;" style="shape=partialRectangle;connectable=0;fillColor=none;top=0;left=0;bottom=0;right=0;editable=1;overflow=hidden;whiteSpace=wrap;html=1;recursiveResize=1;expand=1;part=0;fixedWidth=0;comic=0;fontSize=8;textShadow=0;labelBackgroundColor=none;" parent="kLFAu0C1lm46THWvdxVZ-44" vertex="1">
          <mxGeometry width="82" height="27" as="geometry">
            <mxRectangle width="82" height="27" as="alternateBounds" />
          </mxGeometry>
        </mxCell>
        <mxCell id="kLFAu0C1lm46THWvdxVZ-46" value="&lt;strike&gt;&lt;font style=&quot;font-size: 10px;&quot;&gt;ne sont plus disponibles&lt;/font&gt;&lt;/strike&gt;" style="shape=partialRectangle;connectable=0;fillColor=none;top=0;left=0;bottom=0;right=0;align=center;spacingLeft=6;overflow=hidden;whiteSpace=wrap;html=1;fontSize=8;" parent="kLFAu0C1lm46THWvdxVZ-44" vertex="1">
          <mxGeometry x="82" width="64" height="27" as="geometry">
            <mxRectangle width="64" height="27" as="alternateBounds" />
          </mxGeometry>
        </mxCell>
        <mxCell id="kLFAu0C1lm46THWvdxVZ-47" value="" style="shape=tableRow;horizontal=0;startSize=0;swimlaneHead=0;swimlaneBody=0;fillColor=none;collapsible=0;dropTarget=0;points=[[0,0.5],[1,0.5]];portConstraint=eastwest;top=0;left=0;right=0;bottom=0;" parent="kLFAu0C1lm46THWvdxVZ-43" vertex="1">
          <mxGeometry y="47" width="146" height="26" as="geometry" />
        </mxCell>
        <mxCell id="kLFAu0C1lm46THWvdxVZ-48" value="&lt;font style=&quot;font-size: 10px;&quot;&gt;offres 501-2000&lt;/font&gt;" style="shape=partialRectangle;connectable=0;fillColor=none;top=0;left=0;bottom=0;right=0;editable=1;overflow=hidden;whiteSpace=wrap;html=1;" parent="kLFAu0C1lm46THWvdxVZ-47" vertex="1">
          <mxGeometry width="82" height="26" as="geometry">
            <mxRectangle width="82" height="26" as="alternateBounds" />
          </mxGeometry>
        </mxCell>
        <mxCell id="kLFAu0C1lm46THWvdxVZ-49" value="&lt;font style=&quot;font-size: 10px;&quot;&gt;toujours disponibles&lt;/font&gt;" style="shape=partialRectangle;connectable=0;fillColor=none;top=0;left=0;bottom=0;right=0;align=center;spacingLeft=6;overflow=hidden;whiteSpace=wrap;html=1;fontSize=8;" parent="kLFAu0C1lm46THWvdxVZ-47" vertex="1">
          <mxGeometry x="82" width="64" height="26" as="geometry">
            <mxRectangle width="64" height="26" as="alternateBounds" />
          </mxGeometry>
        </mxCell>
        <mxCell id="kLFAu0C1lm46THWvdxVZ-53" value="" style="shape=tableRow;horizontal=0;startSize=0;swimlaneHead=0;swimlaneBody=0;fillColor=none;collapsible=0;dropTarget=0;points=[[0,0.5],[1,0.5]];portConstraint=eastwest;top=0;left=0;right=0;bottom=0;" parent="kLFAu0C1lm46THWvdxVZ-43" vertex="1">
          <mxGeometry y="73" width="146" height="24" as="geometry" />
        </mxCell>
        <mxCell id="kLFAu0C1lm46THWvdxVZ-54" value="&lt;font style=&quot;font-size: 10px;&quot;&gt;offres 2001-3000&lt;/font&gt;" style="shape=partialRectangle;connectable=0;fillColor=none;top=0;left=0;bottom=0;right=0;editable=1;overflow=hidden;whiteSpace=wrap;html=1;" parent="kLFAu0C1lm46THWvdxVZ-53" vertex="1">
          <mxGeometry width="82" height="24" as="geometry">
            <mxRectangle width="82" height="24" as="alternateBounds" />
          </mxGeometry>
        </mxCell>
        <mxCell id="kLFAu0C1lm46THWvdxVZ-55" value="&lt;font style=&quot;font-size: 10px;&quot;&gt;nouveau&lt;/font&gt;" style="shape=partialRectangle;connectable=0;fillColor=none;top=0;left=0;bottom=0;right=0;align=center;spacingLeft=6;overflow=hidden;whiteSpace=wrap;html=1;fontSize=8;" parent="kLFAu0C1lm46THWvdxVZ-53" vertex="1">
          <mxGeometry x="82" width="64" height="24" as="geometry">
            <mxRectangle width="64" height="24" as="alternateBounds" />
          </mxGeometry>
        </mxCell>
        <mxCell id="kLFAu0C1lm46THWvdxVZ-58" value="json_&lt;font style=&quot;color: rgb(204, 0, 0);&quot;&gt;2&lt;/font&gt;" style="shape=table;startSize=20;container=0;collapsible=0;childLayout=tableLayout;fixedRows=0;rowLines=1;fontStyle=1;align=center;resizeLast=0;html=1;sketch=1;curveFitting=1;jiggle=2;rounded=0;shadow=1;columnLines=1;swimlaneHead=1;swimlaneBody=1;horizontal=1;top=0;bottom=0;left=0;right=0;connectable=1;allowArrows=0;dropTarget=0;expand=0;editable=1;movable=1;resizable=1;rotatable=1;deletable=1;locked=0;fillColor=#e1d5e7;strokeColor=#FF33FF;fontSize=13;" parent="dW5WFOGfwR0lU1UXLjn_-1" vertex="1">
          <mxGeometry x="-3023" y="1526" width="163" height="104" as="geometry" />
        </mxCell>
        <mxCell id="kLFAu0C1lm46THWvdxVZ-59" value="" style="shape=tableRow;horizontal=0;startSize=0;swimlaneHead=0;swimlaneBody=0;fillColor=none;collapsible=0;dropTarget=0;points=[[0,0.5],[1,0.5]];portConstraint=eastwest;top=0;left=0;right=0;bottom=0;labelBackgroundColor=none;labelBorderColor=none;" parent="kLFAu0C1lm46THWvdxVZ-58" vertex="1">
          <mxGeometry y="20" width="163" height="32" as="geometry" />
        </mxCell>
        <mxCell id="kLFAu0C1lm46THWvdxVZ-60" value="&lt;font style=&quot;font-size: 10px;&quot;&gt;offres 1-500&lt;/font&gt;" style="shape=partialRectangle;connectable=0;fillColor=none;top=0;left=0;bottom=0;right=0;editable=1;overflow=hidden;whiteSpace=wrap;html=1;recursiveResize=1;expand=1;part=0;fixedWidth=0;comic=0;fontSize=8;textShadow=0;labelBackgroundColor=none;" parent="kLFAu0C1lm46THWvdxVZ-59" vertex="1">
          <mxGeometry width="86" height="32" as="geometry">
            <mxRectangle width="86" height="32" as="alternateBounds" />
          </mxGeometry>
        </mxCell>
        <mxCell id="kLFAu0C1lm46THWvdxVZ-61" value="&lt;font style=&quot;font-size: 10px;&quot;&gt;de &quot;json_1&quot;&lt;/font&gt;" style="shape=partialRectangle;connectable=0;fillColor=none;top=0;left=0;bottom=0;right=0;align=center;spacingLeft=6;overflow=hidden;whiteSpace=wrap;html=1;fontSize=8;" parent="kLFAu0C1lm46THWvdxVZ-59" vertex="1">
          <mxGeometry x="86" width="77" height="32" as="geometry">
            <mxRectangle width="77" height="32" as="alternateBounds" />
          </mxGeometry>
        </mxCell>
        <mxCell id="kLFAu0C1lm46THWvdxVZ-62" value="" style="shape=tableRow;horizontal=0;startSize=0;swimlaneHead=0;swimlaneBody=0;fillColor=none;collapsible=0;dropTarget=0;points=[[0,0.5],[1,0.5]];portConstraint=eastwest;top=0;left=0;right=0;bottom=0;fontSize=12;" parent="kLFAu0C1lm46THWvdxVZ-58" vertex="1">
          <mxGeometry y="52" width="163" height="26" as="geometry" />
        </mxCell>
        <mxCell id="kLFAu0C1lm46THWvdxVZ-63" value="&lt;font style=&quot;font-size: 10px;&quot;&gt;offres 501-2000&lt;/font&gt;" style="shape=partialRectangle;connectable=0;fillColor=none;top=0;left=0;bottom=0;right=0;editable=1;overflow=hidden;whiteSpace=wrap;html=1;" parent="kLFAu0C1lm46THWvdxVZ-62" vertex="1">
          <mxGeometry width="86" height="26" as="geometry">
            <mxRectangle width="86" height="26" as="alternateBounds" />
          </mxGeometry>
        </mxCell>
        <mxCell id="kLFAu0C1lm46THWvdxVZ-64" value="de &quot;json_2&quot;&amp;nbsp;&lt;span style=&quot;background-color: transparent; color: light-dark(rgb(0, 0, 0), rgb(255, 255, 255));&quot;&gt;car attributs à jour&lt;/span&gt;" style="shape=partialRectangle;connectable=0;fillColor=none;top=0;left=0;bottom=0;right=0;align=center;spacingLeft=6;overflow=hidden;whiteSpace=wrap;html=1;fontSize=10;" parent="kLFAu0C1lm46THWvdxVZ-62" vertex="1">
          <mxGeometry x="86" width="77" height="26" as="geometry">
            <mxRectangle width="77" height="26" as="alternateBounds" />
          </mxGeometry>
        </mxCell>
        <mxCell id="kLFAu0C1lm46THWvdxVZ-65" value="" style="shape=tableRow;horizontal=0;startSize=0;swimlaneHead=0;swimlaneBody=0;fillColor=none;collapsible=0;dropTarget=0;points=[[0,0.5],[1,0.5]];portConstraint=eastwest;top=0;left=0;right=0;bottom=0;" parent="kLFAu0C1lm46THWvdxVZ-58" vertex="1">
          <mxGeometry y="78" width="163" height="26" as="geometry" />
        </mxCell>
        <mxCell id="kLFAu0C1lm46THWvdxVZ-66" value="&lt;font style=&quot;font-size: 10px;&quot;&gt;offres 2001-3000&lt;/font&gt;" style="shape=partialRectangle;connectable=0;fillColor=none;top=0;left=0;bottom=0;right=0;editable=1;overflow=hidden;whiteSpace=wrap;html=1;" parent="kLFAu0C1lm46THWvdxVZ-65" vertex="1">
          <mxGeometry width="86" height="26" as="geometry">
            <mxRectangle width="86" height="26" as="alternateBounds" />
          </mxGeometry>
        </mxCell>
        <mxCell id="kLFAu0C1lm46THWvdxVZ-67" value="&lt;font style=&quot;font-size: 10px;&quot;&gt;de &quot;json_2&quot;&lt;/font&gt;" style="shape=partialRectangle;connectable=0;fillColor=none;top=0;left=0;bottom=0;right=0;align=center;spacingLeft=6;overflow=hidden;whiteSpace=wrap;html=1;fontSize=8;" parent="kLFAu0C1lm46THWvdxVZ-65" vertex="1">
          <mxGeometry x="86" width="77" height="26" as="geometry">
            <mxRectangle width="77" height="26" as="alternateBounds" />
          </mxGeometry>
        </mxCell>
        <mxCell id="kLFAu0C1lm46THWvdxVZ-81" style="edgeStyle=orthogonalEdgeStyle;rounded=1;orthogonalLoop=1;jettySize=auto;html=1;exitX=0.5;exitY=1;exitDx=0;exitDy=0;curved=0;strokeColor=#FF33FF;entryX=0.408;entryY=1;entryDx=0;entryDy=0;entryPerimeter=0;" parent="dW5WFOGfwR0lU1UXLjn_-1" source="kLFAu0C1lm46THWvdxVZ-76" edge="1" target="kLFAu0C1lm46THWvdxVZ-65">
          <mxGeometry relative="1" as="geometry">
            <mxPoint x="-2956" y="1634" as="targetPoint" />
            <Array as="points">
              <mxPoint x="-3186" y="1703" />
              <mxPoint x="-2956" y="1703" />
            </Array>
          </mxGeometry>
        </mxCell>
        <mxCell id="kLFAu0C1lm46THWvdxVZ-83" style="edgeStyle=orthogonalEdgeStyle;rounded=1;orthogonalLoop=1;jettySize=auto;html=1;curved=0;exitX=0.5;exitY=1;exitDx=0;exitDy=0;strokeColor=#FF33FF;entryX=0.528;entryY=0.978;entryDx=0;entryDy=0;entryPerimeter=0;" parent="dW5WFOGfwR0lU1UXLjn_-1" target="kLFAu0C1lm46THWvdxVZ-65" edge="1">
          <mxGeometry relative="1" as="geometry">
            <mxPoint x="-3526" y="1614" as="sourcePoint" />
            <mxPoint x="-2943" y="1624" as="targetPoint" />
            <Array as="points">
              <mxPoint x="-3526" y="1711" />
              <mxPoint x="-2937" y="1711" />
            </Array>
          </mxGeometry>
        </mxCell>
        <mxCell id="kLFAu0C1lm46THWvdxVZ-84" value="" style="shape=flexArrow;endArrow=classic;html=1;rounded=0;endWidth=10.465116279069768;endSize=5.212037037037037;width=6.296296296296296;fillColor=#FF33FF;" parent="dW5WFOGfwR0lU1UXLjn_-1" edge="1">
          <mxGeometry width="50" height="50" relative="1" as="geometry">
            <mxPoint x="-3098.25" y="1582" as="sourcePoint" />
            <mxPoint x="-3028.25" y="1582" as="targetPoint" />
            <Array as="points">
              <mxPoint x="-3087.25" y="1582" />
              <mxPoint x="-3066.25" y="1582" />
            </Array>
          </mxGeometry>
        </mxCell>
        <mxCell id="kLFAu0C1lm46THWvdxVZ-88" value="&lt;font style=&quot;color: rgb(204, 0, 204);&quot;&gt;on veut&lt;/font&gt;" style="text;html=1;align=center;verticalAlign=middle;whiteSpace=wrap;rounded=0;fontSize=10;strokeColor=none;sketch=1;curveFitting=1;jiggle=2;fillColor=none;" parent="dW5WFOGfwR0lU1UXLjn_-1" vertex="1">
          <mxGeometry x="-3094" y="1551" width="51" height="34" as="geometry" />
        </mxCell>
        <mxCell id="kLFAu0C1lm46THWvdxVZ-91" style="edgeStyle=orthogonalEdgeStyle;rounded=1;orthogonalLoop=1;jettySize=auto;html=1;exitX=0.5;exitY=1;exitDx=0;exitDy=0;curved=0;strokeColor=#FF33FF;entryX=0.454;entryY=1.107;entryDx=0;entryDy=0;entryPerimeter=0;" parent="dW5WFOGfwR0lU1UXLjn_-1" source="SSSfKML2H5tBRjRLAjbq-7" target="SSSfKML2H5tBRjRLAjbq-26" edge="1">
          <mxGeometry relative="1" as="geometry">
            <mxPoint x="-2343.4550000000004" y="1623.92" as="targetPoint" />
            <Array as="points">
              <mxPoint x="-2590" y="1704" />
              <mxPoint x="-2354" y="1704" />
            </Array>
            <mxPoint x="-2589" y="1634" as="sourcePoint" />
          </mxGeometry>
        </mxCell>
        <mxCell id="kLFAu0C1lm46THWvdxVZ-92" value="" style="shape=flexArrow;endArrow=classic;html=1;rounded=0;endWidth=10.465116279069768;endSize=5.212037037037037;width=6.296296296296296;fillColor=#FF33FF;" parent="dW5WFOGfwR0lU1UXLjn_-1" edge="1">
          <mxGeometry width="50" height="50" relative="1" as="geometry">
            <mxPoint x="-2501.25" y="1582" as="sourcePoint" />
            <mxPoint x="-2431.25" y="1582" as="targetPoint" />
            <Array as="points">
              <mxPoint x="-2490.25" y="1582" />
              <mxPoint x="-2469.25" y="1582" />
            </Array>
          </mxGeometry>
        </mxCell>
        <mxCell id="kLFAu0C1lm46THWvdxVZ-100" value="&lt;div&gt;&lt;font&gt;&lt;b&gt;&lt;u&gt;&lt;span&gt;Extraction &lt;/span&gt;&lt;font style=&quot;color: rgb(204, 0, 0);&quot;&gt;3&lt;/font&gt;&lt;span&gt; :&lt;/span&gt;&lt;/u&gt;&lt;/b&gt;&lt;/font&gt;&lt;/div&gt;" style="text;html=1;align=left;verticalAlign=top;whiteSpace=wrap;rounded=0;fontSize=16;" parent="dW5WFOGfwR0lU1UXLjn_-1" vertex="1">
          <mxGeometry x="-2809" y="1326" width="158" height="27" as="geometry" />
        </mxCell>
        <mxCell id="kLFAu0C1lm46THWvdxVZ-123" value="&lt;font style=&quot;color: rgb(204, 0, 204);&quot;&gt;on veut&lt;/font&gt;" style="text;html=1;align=center;verticalAlign=middle;whiteSpace=wrap;rounded=0;fontSize=10;strokeColor=none;sketch=1;curveFitting=1;jiggle=2;fillColor=none;" parent="dW5WFOGfwR0lU1UXLjn_-1" vertex="1">
          <mxGeometry x="-2496" y="1551" width="51" height="34" as="geometry" />
        </mxCell>
        <mxCell id="kLFAu0C1lm46THWvdxVZ-125" value="&lt;div&gt;&lt;font&gt;&lt;b&gt;&lt;u&gt;&lt;span&gt;Extraction &lt;/span&gt;&lt;font style=&quot;color: rgb(204, 0, 0);&quot;&gt;n&lt;/font&gt;&lt;span&gt; :&lt;/span&gt;&lt;/u&gt;&lt;/b&gt;&lt;/font&gt;&lt;/div&gt;" style="text;html=1;align=left;verticalAlign=top;whiteSpace=wrap;rounded=0;fontSize=16;" parent="dW5WFOGfwR0lU1UXLjn_-1" vertex="1">
          <mxGeometry x="-2216" y="1326" width="114" height="35" as="geometry" />
        </mxCell>
        <mxCell id="kLFAu0C1lm46THWvdxVZ-127" style="edgeStyle=orthogonalEdgeStyle;rounded=1;orthogonalLoop=1;jettySize=auto;html=1;entryX=0.605;entryY=1.063;entryDx=0;entryDy=0;entryPerimeter=0;curved=0;strokeColor=#FF33FF;exitX=0.636;exitY=1.11;exitDx=0;exitDy=0;exitPerimeter=0;" parent="dW5WFOGfwR0lU1UXLjn_-1" target="SSSfKML2H5tBRjRLAjbq-26" edge="1" source="kLFAu0C1lm46THWvdxVZ-65">
          <mxGeometry relative="1" as="geometry">
            <mxPoint x="-2933" y="1625" as="sourcePoint" />
            <mxPoint x="-2353.0299999999997" y="1623.7760000000003" as="targetPoint" />
            <Array as="points">
              <mxPoint x="-2919" y="1712" />
              <mxPoint x="-2329" y="1712" />
            </Array>
          </mxGeometry>
        </mxCell>
        <mxCell id="PpwRb3DP2myml8ZpC41S-6" value="&lt;div&gt;&lt;font style=&quot;color: rgb(0, 0, 0);&quot;&gt;&lt;font&gt;&lt;b&gt;1&lt;/b&gt;&lt;/font&gt;&lt;span&gt; fichier .json&lt;/span&gt;&lt;/font&gt;&lt;/div&gt;" style="rhombus;whiteSpace=wrap;html=1;fillColor=#FFE599;gradientColor=none;rounded=1;sketch=1;curveFitting=1;jiggle=2;fontSize=13;" parent="dW5WFOGfwR0lU1UXLjn_-1" vertex="1">
          <mxGeometry x="-2825" y="979.5" width="128.5" height="57.5" as="geometry" />
        </mxCell>
        <mxCell id="PpwRb3DP2myml8ZpC41S-14" value="" style="edgeStyle=orthogonalEdgeStyle;rounded=0;orthogonalLoop=1;jettySize=auto;html=1;sketch=1;curveFitting=1;jiggle=2;entryX=0.5;entryY=0;entryDx=0;entryDy=0;" parent="dW5WFOGfwR0lU1UXLjn_-1" source="PpwRb3DP2myml8ZpC41S-6" edge="1">
          <mxGeometry relative="1" as="geometry">
            <mxPoint x="-2998" y="1532" as="sourcePoint" />
            <mxPoint x="-2761" y="1089" as="targetPoint" />
          </mxGeometry>
        </mxCell>
        <mxCell id="PpwRb3DP2myml8ZpC41S-19" value="&lt;div&gt;&lt;span style=&quot;background-color: transparent; color: light-dark(rgb(0, 0, 0), rgb(255, 255, 255));&quot;&gt;Par exemple,&amp;nbsp;2000 offres récupérées par API :&lt;/span&gt;&lt;/div&gt;" style="text;html=1;align=left;verticalAlign=top;whiteSpace=wrap;rounded=0;fontSize=13;" parent="dW5WFOGfwR0lU1UXLjn_-1" vertex="1">
          <mxGeometry x="-3740" y="1356" width="276" height="48" as="geometry" />
        </mxCell>
        <mxCell id="PpwRb3DP2myml8ZpC41S-20" value="&lt;div&gt;&lt;span style=&quot;background-color: transparent; color: light-dark(rgb(0, 0, 0), rgb(255, 255, 255));&quot;&gt;Par exemple, 2500 offres récupérées par API :&lt;/span&gt;&lt;/div&gt;&lt;div&gt;&amp;nbsp; &lt;strike&gt;(- les offres 1-500 précédemment disponibles ne le sont plus)&lt;/strike&gt;&lt;/div&gt;&lt;div&gt;&amp;nbsp; &amp;nbsp;- les offres 501-2000 précédemment disponibles le sont toujours&lt;/div&gt;&lt;div&gt;&amp;nbsp; &amp;nbsp;- les offres 2001-3000 sont nouvelles &lt;font style=&quot;color: rgb(0, 0, 255);&quot;&gt;&lt;b&gt;--&amp;gt; 1000 nouvelles offres&lt;/b&gt;&lt;/font&gt;&lt;/div&gt;" style="text;html=1;align=left;verticalAlign=top;whiteSpace=wrap;rounded=0;fontSize=13;" parent="dW5WFOGfwR0lU1UXLjn_-1" vertex="1">
          <mxGeometry x="-3401" y="1360" width="425" height="88" as="geometry" />
        </mxCell>
        <mxCell id="PpwRb3DP2myml8ZpC41S-21" value="&lt;div&gt;&lt;span style=&quot;background-color: transparent; color: light-dark(rgb(0, 0, 0), rgb(255, 255, 255));&quot;&gt;Par exemple, 2050 offres récupérées par API :&lt;/span&gt;&lt;/div&gt;&lt;div&gt;&amp;nbsp; &lt;strike&gt;(- les offres 1-1000 précédemment disponibles ne le sont plus)&lt;/strike&gt;&lt;/div&gt;&lt;div&gt;&amp;nbsp; &amp;nbsp;- les offres 1001-3000 précédemment disponibles le sont toujours&lt;/div&gt;&lt;div&gt;&amp;nbsp; &amp;nbsp;- les offres 3001-3050 sont nouvelles &lt;b&gt;&lt;font style=&quot;color: rgb(0, 0, 255);&quot;&gt;---&amp;gt; 50 nouvelles offres&lt;/font&gt;&lt;/b&gt;&lt;/div&gt;" style="text;html=1;align=left;verticalAlign=top;whiteSpace=wrap;rounded=0;fontSize=13;" parent="dW5WFOGfwR0lU1UXLjn_-1" vertex="1">
          <mxGeometry x="-2802" y="1356" width="427" height="88" as="geometry" />
        </mxCell>
        <mxCell id="PpwRb3DP2myml8ZpC41S-32" style="edgeStyle=orthogonalEdgeStyle;rounded=0;orthogonalLoop=1;jettySize=auto;html=1;entryX=0.5;entryY=0;entryDx=0;entryDy=0;sketch=1;curveFitting=1;jiggle=2;" parent="dW5WFOGfwR0lU1UXLjn_-1" edge="1">
          <mxGeometry relative="1" as="geometry">
            <mxPoint x="-2758.9999999999995" y="1326" as="targetPoint" />
            <mxPoint x="-2759" y="1289" as="sourcePoint" />
          </mxGeometry>
        </mxCell>
        <mxCell id="PpwRb3DP2myml8ZpC41S-24" value="Le nom du json contient &quot;&lt;font style=&quot;color: rgb(0, 0, 255);&quot;&gt;extraction_occurence_&lt;/font&gt;&lt;font style=&quot;color: rgb(204, 0, 0);&quot;&gt;&lt;b&gt;2&lt;/b&gt;&lt;/font&gt;&lt;font style=&quot;color: rgb(0, 0, 255);&quot;&gt;.json&lt;/font&gt;&quot;" style="rounded=1;whiteSpace=wrap;html=1;fillColor=#ffe6cc;strokeColor=#000000;sketch=1;curveFitting=1;jiggle=2;fontSize=13;" parent="dW5WFOGfwR0lU1UXLjn_-1" vertex="1">
          <mxGeometry x="-2856" y="1239" width="190" height="50" as="geometry" />
        </mxCell>
        <mxCell id="PpwRb3DP2myml8ZpC41S-31" style="edgeStyle=orthogonalEdgeStyle;rounded=0;orthogonalLoop=1;jettySize=auto;html=1;sketch=1;curveFitting=1;jiggle=2;" parent="dW5WFOGfwR0lU1UXLjn_-1" source="PpwRb3DP2myml8ZpC41S-25" target="kLFAu0C1lm46THWvdxVZ-41" edge="1">
          <mxGeometry relative="1" as="geometry" />
        </mxCell>
        <mxCell id="PpwRb3DP2myml8ZpC41S-25" value="Le nom du json contient &quot;&lt;font style=&quot;color: rgb(0, 0, 255);&quot;&gt;extraction_occurence_&lt;/font&gt;&lt;font style=&quot;color: rgb(204, 0, 0);&quot;&gt;&lt;b&gt;1&lt;/b&gt;&lt;/font&gt;&lt;font style=&quot;color: rgb(0, 0, 255);&quot;&gt;.json&lt;/font&gt;&quot;" style="rounded=1;whiteSpace=wrap;html=1;fillColor=#ffe6cc;strokeColor=#000000;sketch=1;curveFitting=1;jiggle=2;fontSize=13;" parent="dW5WFOGfwR0lU1UXLjn_-1" vertex="1">
          <mxGeometry x="-3453" y="1239" width="197" height="50" as="geometry" />
        </mxCell>
        <mxCell id="PpwRb3DP2myml8ZpC41S-35" style="edgeStyle=orthogonalEdgeStyle;rounded=0;orthogonalLoop=1;jettySize=auto;html=1;entryX=0.5;entryY=0;entryDx=0;entryDy=0;sketch=1;curveFitting=1;jiggle=2;" parent="dW5WFOGfwR0lU1UXLjn_-1" source="PpwRb3DP2myml8ZpC41S-34" target="PpwRb3DP2myml8ZpC41S-36" edge="1">
          <mxGeometry relative="1" as="geometry" />
        </mxCell>
        <mxCell id="PpwRb3DP2myml8ZpC41S-34" value="Lancement du workflow" style="rounded=1;whiteSpace=wrap;html=1;fillColor=#ffe6cc;strokeColor=#000000;sketch=1;curveFitting=1;jiggle=2;fontSize=14;" parent="dW5WFOGfwR0lU1UXLjn_-1" vertex="1">
          <mxGeometry x="-2848.5" y="766" width="176" height="49" as="geometry" />
        </mxCell>
        <mxCell id="PpwRb3DP2myml8ZpC41S-39" style="edgeStyle=orthogonalEdgeStyle;rounded=0;orthogonalLoop=1;jettySize=auto;html=1;entryX=0.5;entryY=0;entryDx=0;entryDy=0;sketch=1;curveFitting=1;jiggle=2;" parent="dW5WFOGfwR0lU1UXLjn_-1" source="PpwRb3DP2myml8ZpC41S-36" target="PpwRb3DP2myml8ZpC41S-6" edge="1">
          <mxGeometry relative="1" as="geometry" />
        </mxCell>
        <mxCell id="PpwRb3DP2myml8ZpC41S-40" style="edgeStyle=orthogonalEdgeStyle;rounded=0;orthogonalLoop=1;jettySize=auto;html=1;exitX=0.25;exitY=1;exitDx=0;exitDy=0;entryX=0.5;entryY=0;entryDx=0;entryDy=0;sketch=1;curveFitting=1;jiggle=2;" parent="dW5WFOGfwR0lU1UXLjn_-1" source="PpwRb3DP2myml8ZpC41S-36" target="PpwRb3DP2myml8ZpC41S-37" edge="1">
          <mxGeometry relative="1" as="geometry" />
        </mxCell>
        <mxCell id="PpwRb3DP2myml8ZpC41S-41" style="edgeStyle=orthogonalEdgeStyle;rounded=0;orthogonalLoop=1;jettySize=auto;html=1;exitX=0.75;exitY=1;exitDx=0;exitDy=0;entryX=0.5;entryY=0;entryDx=0;entryDy=0;sketch=1;curveFitting=1;jiggle=2;" parent="dW5WFOGfwR0lU1UXLjn_-1" source="PpwRb3DP2myml8ZpC41S-36" target="PpwRb3DP2myml8ZpC41S-38" edge="1">
          <mxGeometry relative="1" as="geometry" />
        </mxCell>
        <mxCell id="PpwRb3DP2myml8ZpC41S-36" value="&lt;div style=&quot;color: rgb(0, 0, 255);&quot;&gt;&lt;span style=&quot;background-color: transparent;&quot;&gt;&lt;font style=&quot;color: rgb(0, 0, 0);&quot;&gt;Vérification du nombre de fichiers json dans le dossier&lt;/font&gt;&amp;nbsp;&lt;/span&gt;&lt;/div&gt;&lt;div style=&quot;color: rgb(0, 0, 255);&quot;&gt;&lt;span style=&quot;color: light-dark(rgb(0, 0, 255), rgb(205, 205, 255)); background-color: transparent;&quot;&gt;&quot;airflow/data/&lt;/span&gt;&lt;span style=&quot;color: light-dark(rgb(0, 0, 255), rgb(205, 205, 255)); background-color: transparent;&quot;&gt;outputs/offres/1--generated_json_file&lt;/span&gt;&lt;span style=&quot;color: light-dark(rgb(0, 0, 255), rgb(205, 205, 255)); background-color: transparent;&quot;&gt;&quot;&lt;/span&gt;&lt;/div&gt;" style="rounded=1;whiteSpace=wrap;html=1;fillColor=#ffe6cc;strokeColor=#000000;sketch=1;curveFitting=1;jiggle=2;fontSize=13;" parent="dW5WFOGfwR0lU1UXLjn_-1" vertex="1">
          <mxGeometry x="-2929" y="852" width="338" height="62" as="geometry" />
        </mxCell>
        <mxCell id="PpwRb3DP2myml8ZpC41S-48" style="edgeStyle=orthogonalEdgeStyle;rounded=0;orthogonalLoop=1;jettySize=auto;html=1;exitX=0;exitY=0.5;exitDx=0;exitDy=0;sketch=1;curveFitting=1;jiggle=2;" parent="dW5WFOGfwR0lU1UXLjn_-1" source="PpwRb3DP2myml8ZpC41S-37" target="kLFAu0C1lm46THWvdxVZ-42" edge="1">
          <mxGeometry relative="1" as="geometry">
            <Array as="points">
              <mxPoint x="-3701" y="1007" />
            </Array>
          </mxGeometry>
        </mxCell>
        <mxCell id="PpwRb3DP2myml8ZpC41S-37" value="&lt;div&gt;&lt;font style=&quot;color: rgb(0, 0, 0);&quot;&gt;&lt;b&gt;&lt;font&gt;0&lt;/font&gt;&lt;/b&gt;&lt;span&gt; fichier .json&lt;/span&gt;&lt;/font&gt;&lt;/div&gt;" style="rhombus;whiteSpace=wrap;html=1;fillColor=#FFE599;gradientColor=none;rounded=1;sketch=1;curveFitting=1;jiggle=2;fontSize=13;" parent="dW5WFOGfwR0lU1UXLjn_-1" vertex="1">
          <mxGeometry x="-3107" y="979.5" width="137" height="56.5" as="geometry" />
        </mxCell>
        <mxCell id="PpwRb3DP2myml8ZpC41S-43" style="edgeStyle=orthogonalEdgeStyle;rounded=0;orthogonalLoop=1;jettySize=auto;html=1;exitX=1;exitY=0.5;exitDx=0;exitDy=0;entryX=0;entryY=0.5;entryDx=0;entryDy=0;sketch=1;curveFitting=1;jiggle=2;" parent="dW5WFOGfwR0lU1UXLjn_-1" source="PpwRb3DP2myml8ZpC41S-38" target="PpwRb3DP2myml8ZpC41S-42" edge="1">
          <mxGeometry relative="1" as="geometry" />
        </mxCell>
        <mxCell id="PpwRb3DP2myml8ZpC41S-38" value="&lt;div&gt;&lt;font style=&quot;color: rgb(0, 0, 0);&quot;&gt;&lt;b&gt;plusieurs&lt;/b&gt;&lt;/font&gt;&lt;/div&gt;&lt;div&gt;&lt;font style=&quot;color: rgb(0, 0, 0);&quot;&gt;&amp;nbsp;fichiers .json&lt;/font&gt;&lt;/div&gt;" style="rhombus;whiteSpace=wrap;html=1;fillColor=#FFE599;gradientColor=none;rounded=1;sketch=1;curveFitting=1;jiggle=2;fontSize=13;" parent="dW5WFOGfwR0lU1UXLjn_-1" vertex="1">
          <mxGeometry x="-2551" y="981.5" width="154.5" height="60.5" as="geometry" />
        </mxCell>
        <mxCell id="PpwRb3DP2myml8ZpC41S-42" value="Fin du workflow" style="rounded=1;whiteSpace=wrap;html=1;fillColor=#ffe6cc;strokeColor=#000000;sketch=1;curveFitting=1;jiggle=2;fontSize=14;" parent="dW5WFOGfwR0lU1UXLjn_-1" vertex="1">
          <mxGeometry x="-2310" y="988" width="144" height="49" as="geometry" />
        </mxCell>
        <mxCell id="PpwRb3DP2myml8ZpC41S-45" style="edgeStyle=orthogonalEdgeStyle;rounded=0;orthogonalLoop=1;jettySize=auto;html=1;exitX=0.25;exitY=1;exitDx=0;exitDy=0;entryX=0.522;entryY=-0.011;entryDx=0;entryDy=0;sketch=1;curveFitting=1;jiggle=2;entryPerimeter=0;" parent="dW5WFOGfwR0lU1UXLjn_-1" source="PpwRb3DP2myml8ZpC41S-44" target="PpwRb3DP2myml8ZpC41S-25" edge="1">
          <mxGeometry relative="1" as="geometry">
            <mxPoint x="-3330" y="1234" as="targetPoint" />
          </mxGeometry>
        </mxCell>
        <mxCell id="PpwRb3DP2myml8ZpC41S-46" style="edgeStyle=orthogonalEdgeStyle;rounded=0;orthogonalLoop=1;jettySize=auto;html=1;exitX=0.5;exitY=1;exitDx=0;exitDy=0;entryX=0.5;entryY=0;entryDx=0;entryDy=0;sketch=1;curveFitting=1;jiggle=2;" parent="dW5WFOGfwR0lU1UXLjn_-1" source="PpwRb3DP2myml8ZpC41S-44" target="PpwRb3DP2myml8ZpC41S-24" edge="1">
          <mxGeometry relative="1" as="geometry">
            <mxPoint x="-2773.0000000000005" y="1234" as="targetPoint" />
          </mxGeometry>
        </mxCell>
        <mxCell id="PpwRb3DP2myml8ZpC41S-47" style="edgeStyle=orthogonalEdgeStyle;rounded=0;orthogonalLoop=1;jettySize=auto;html=1;exitX=0.75;exitY=1;exitDx=0;exitDy=0;entryX=0.5;entryY=0;entryDx=0;entryDy=0;sketch=1;curveFitting=1;jiggle=2;" parent="dW5WFOGfwR0lU1UXLjn_-1" source="PpwRb3DP2myml8ZpC41S-44" target="PpwRb3DP2myml8ZpC41S-49" edge="1">
          <mxGeometry relative="1" as="geometry">
            <Array as="points">
              <mxPoint x="-2714" y="1193" />
              <mxPoint x="-2159" y="1193" />
            </Array>
          </mxGeometry>
        </mxCell>
        <mxCell id="PpwRb3DP2myml8ZpC41S-44" value="&lt;div style=&quot;color: rgb(0, 0, 255);&quot;&gt;&lt;div style=&quot;color: rgb(0, 0, 0);&quot;&gt;&lt;font style=&quot;color: rgb(0, 0, 0);&quot;&gt;Vérification du numéro de&amp;nbsp;&lt;/font&gt;&lt;span style=&quot;color: light-dark(rgb(0, 0, 0), rgb(237, 237, 237)); background-color: transparent;&quot;&gt;l&#39;occurence&amp;nbsp;&lt;/span&gt;&lt;/div&gt;&lt;div style=&quot;color: rgb(0, 0, 0);&quot;&gt;&lt;span style=&quot;color: light-dark(rgb(0, 0, 0), rgb(237, 237, 237)); background-color: transparent;&quot;&gt;avec le&amp;nbsp;&lt;/span&gt;&lt;span style=&quot;color: light-dark(rgb(0, 0, 0), rgb(237, 237, 237)); background-color: transparent;&quot;&gt;nom du fichier json&lt;/span&gt;&lt;/div&gt;&lt;/div&gt;" style="rounded=1;whiteSpace=wrap;html=1;fillColor=#ffe6cc;strokeColor=#000000;sketch=1;curveFitting=1;jiggle=2;fontSize=13;" parent="dW5WFOGfwR0lU1UXLjn_-1" vertex="1">
          <mxGeometry x="-2855" y="1089" width="188" height="62" as="geometry" />
        </mxCell>
        <mxCell id="PpwRb3DP2myml8ZpC41S-52" style="edgeStyle=orthogonalEdgeStyle;rounded=0;orthogonalLoop=1;jettySize=auto;html=1;sketch=1;curveFitting=1;jiggle=2;" parent="dW5WFOGfwR0lU1UXLjn_-1" source="PpwRb3DP2myml8ZpC41S-49" target="kLFAu0C1lm46THWvdxVZ-125" edge="1">
          <mxGeometry relative="1" as="geometry" />
        </mxCell>
        <mxCell id="PpwRb3DP2myml8ZpC41S-49" value="Le nom du json contient &quot;&lt;font style=&quot;color: rgb(0, 0, 255);&quot;&gt;extraction_occurence_&lt;/font&gt;&lt;font style=&quot;color: rgb(204, 0, 0);&quot;&gt;&lt;b&gt;n-1&lt;/b&gt;&lt;/font&gt;&lt;font style=&quot;color: rgb(0, 0, 255);&quot;&gt;.json&lt;/font&gt;&quot;" style="rounded=1;whiteSpace=wrap;html=1;fillColor=#ffe6cc;strokeColor=#000000;sketch=1;curveFitting=1;jiggle=2;fontSize=13;" parent="dW5WFOGfwR0lU1UXLjn_-1" vertex="1">
          <mxGeometry x="-2266" y="1239" width="213" height="50" as="geometry" />
        </mxCell>
        <mxCell id="PpwRb3DP2myml8ZpC41S-67" value="json_&lt;font style=&quot;color: rgb(204, 0, 0);&quot;&gt;n&lt;/font&gt;" style="shape=table;startSize=20;container=0;collapsible=0;childLayout=tableLayout;fixedRows=0;rowLines=1;fontStyle=1;align=center;resizeLast=0;html=1;sketch=1;curveFitting=1;jiggle=2;rounded=0;shadow=1;columnLines=1;swimlaneHead=1;swimlaneBody=1;horizontal=1;top=0;bottom=0;left=0;right=0;connectable=1;allowArrows=0;dropTarget=0;expand=0;editable=1;movable=1;resizable=1;rotatable=1;deletable=1;locked=0;fillColor=#e1d5e7;strokeColor=#FF33FF;fontSize=13;" parent="dW5WFOGfwR0lU1UXLjn_-1" vertex="1">
          <mxGeometry x="-2215" y="1378" width="327" height="108.46857142857156" as="geometry" />
        </mxCell>
        <mxCell id="PpwRb3DP2myml8ZpC41S-68" value="" style="shape=tableRow;horizontal=0;startSize=0;swimlaneHead=0;swimlaneBody=0;fillColor=none;collapsible=0;dropTarget=0;points=[[0,0.5],[1,0.5]];portConstraint=eastwest;top=0;left=0;right=0;bottom=0;labelBackgroundColor=none;labelBorderColor=none;" parent="PpwRb3DP2myml8ZpC41S-67" vertex="1">
          <mxGeometry y="20" width="327" height="29" as="geometry" />
        </mxCell>
        <mxCell id="PpwRb3DP2myml8ZpC41S-69" value="&lt;font style=&quot;font-size: 10px;&quot;&gt;offres A -&amp;gt; B&lt;/font&gt;" style="shape=partialRectangle;connectable=0;fillColor=none;top=0;left=0;bottom=0;right=0;editable=1;overflow=hidden;whiteSpace=wrap;html=1;recursiveResize=1;expand=1;part=0;fixedWidth=0;comic=0;fontSize=8;textShadow=0;labelBackgroundColor=none;" parent="PpwRb3DP2myml8ZpC41S-68" vertex="1">
          <mxGeometry width="98" height="29" as="geometry">
            <mxRectangle width="98" height="29" as="alternateBounds" />
          </mxGeometry>
        </mxCell>
        <mxCell id="PpwRb3DP2myml8ZpC41S-70" value="&lt;font style=&quot;font-size: 10px;&quot;&gt;récupérer les offres qui ne sont &lt;u style=&quot;&quot;&gt;plus disponibles&lt;/u&gt; lors de l&#39;extraction n &lt;b style=&quot;&quot;&gt;du fichier &quot;json_n-1&quot;&lt;/b&gt;&lt;/font&gt;" style="shape=partialRectangle;connectable=0;fillColor=none;top=0;left=0;bottom=0;right=0;align=center;spacingLeft=6;overflow=hidden;whiteSpace=wrap;html=1;fontSize=8;" parent="PpwRb3DP2myml8ZpC41S-68" vertex="1">
          <mxGeometry x="98" width="229" height="29" as="geometry">
            <mxRectangle width="229" height="29" as="alternateBounds" />
          </mxGeometry>
        </mxCell>
        <mxCell id="PpwRb3DP2myml8ZpC41S-71" value="" style="shape=tableRow;horizontal=0;startSize=0;swimlaneHead=0;swimlaneBody=0;fillColor=none;collapsible=0;dropTarget=0;points=[[0,0.5],[1,0.5]];portConstraint=eastwest;top=0;left=0;right=0;bottom=0;" parent="PpwRb3DP2myml8ZpC41S-67" vertex="1">
          <mxGeometry y="49" width="327" height="30" as="geometry" />
        </mxCell>
        <mxCell id="PpwRb3DP2myml8ZpC41S-72" value="&lt;font style=&quot;font-size: 10px;&quot;&gt;offres B+1 -&amp;gt; C&lt;/font&gt;" style="shape=partialRectangle;connectable=0;fillColor=none;top=0;left=0;bottom=0;right=0;editable=1;overflow=hidden;whiteSpace=wrap;html=1;" parent="PpwRb3DP2myml8ZpC41S-71" vertex="1">
          <mxGeometry width="98" height="30" as="geometry">
            <mxRectangle width="98" height="30" as="alternateBounds" />
          </mxGeometry>
        </mxCell>
        <mxCell id="PpwRb3DP2myml8ZpC41S-73" value="&lt;font style=&quot;font-size: 10px;&quot;&gt;récupérer les offres &lt;u style=&quot;&quot;&gt;toujours disponibles&lt;/u&gt;&amp;nbsp;car les attributs sont à jour &lt;b style=&quot;&quot;&gt;du fichier &quot;json_n&quot;&amp;nbsp;&lt;/b&gt;&lt;/font&gt;" style="shape=partialRectangle;connectable=0;fillColor=none;top=0;left=0;bottom=0;right=0;align=center;spacingLeft=6;overflow=hidden;whiteSpace=wrap;html=1;fontSize=8;" parent="PpwRb3DP2myml8ZpC41S-71" vertex="1">
          <mxGeometry x="98" width="229" height="30" as="geometry">
            <mxRectangle width="229" height="30" as="alternateBounds" />
          </mxGeometry>
        </mxCell>
        <mxCell id="PpwRb3DP2myml8ZpC41S-74" value="" style="shape=tableRow;horizontal=0;startSize=0;swimlaneHead=0;swimlaneBody=0;fillColor=none;collapsible=0;dropTarget=0;points=[[0,0.5],[1,0.5]];portConstraint=eastwest;top=0;left=0;right=0;bottom=0;" parent="PpwRb3DP2myml8ZpC41S-67" vertex="1">
          <mxGeometry y="79" width="327" height="29" as="geometry" />
        </mxCell>
        <mxCell id="PpwRb3DP2myml8ZpC41S-75" value="&lt;font style=&quot;font-size: 10px;&quot;&gt;offres C+1 -&amp;gt; D&lt;/font&gt;" style="shape=partialRectangle;connectable=0;fillColor=none;top=0;left=0;bottom=0;right=0;editable=1;overflow=hidden;whiteSpace=wrap;html=1;" parent="PpwRb3DP2myml8ZpC41S-74" vertex="1">
          <mxGeometry width="98" height="29" as="geometry">
            <mxRectangle width="98" height="29" as="alternateBounds" />
          </mxGeometry>
        </mxCell>
        <mxCell id="PpwRb3DP2myml8ZpC41S-76" value="&lt;font style=&quot;font-size: 10px;&quot;&gt;récupérer les &lt;u style=&quot;&quot;&gt;nouvelles&lt;/u&gt; offres &lt;b style=&quot;&quot;&gt;du fichier &quot;json_n&quot;&lt;/b&gt;&lt;/font&gt;" style="shape=partialRectangle;connectable=0;fillColor=none;top=0;left=0;bottom=0;right=0;align=center;spacingLeft=6;overflow=hidden;whiteSpace=wrap;html=1;fontSize=8;" parent="PpwRb3DP2myml8ZpC41S-74" vertex="1">
          <mxGeometry x="98" width="229" height="29" as="geometry">
            <mxRectangle width="229" height="29" as="alternateBounds" />
          </mxGeometry>
        </mxCell>
        <mxCell id="PpwRb3DP2myml8ZpC41S-77" value="&lt;font style=&quot;&quot;&gt;&lt;font style=&quot;&quot;&gt;Faire un &quot;RIGHT JOIN&quot; entre &quot;json_&lt;/font&gt;&lt;font style=&quot;&quot;&gt;&lt;b&gt;n-1&lt;/b&gt;&lt;/font&gt;&lt;font style=&quot;&quot;&gt;&quot; et &quot;json_&lt;/font&gt;&lt;font style=&quot;&quot;&gt;&lt;b&gt;n&lt;/b&gt;&lt;/font&gt;&lt;font style=&quot;&quot;&gt;&quot; ne fonctionne pas car à l&#39;intersection, les attributs ont des valeurs différentes&lt;/font&gt;&lt;/font&gt;" style="text;html=1;align=center;verticalAlign=middle;whiteSpace=wrap;rounded=0;fontSize=8;strokeColor=none;sketch=1;curveFitting=1;jiggle=2;fillColor=none;fontColor=#000000;" parent="dW5WFOGfwR0lU1UXLjn_-1" vertex="1">
          <mxGeometry x="-2204" y="1491" width="307" height="34" as="geometry" />
        </mxCell>
        <mxCell id="PpwRb3DP2myml8ZpC41S-79" value="" style="rounded=0;whiteSpace=wrap;html=1;opacity=20;fillColor=#FFFF33;strokeColor=#d6b656;" parent="dW5WFOGfwR0lU1UXLjn_-1" vertex="1">
          <mxGeometry x="-2227.25" y="1369" width="350.25" height="124" as="geometry" />
        </mxCell>
        <mxCell id="PpwRb3DP2myml8ZpC41S-81" value="&lt;font style=&quot;&quot;&gt;&lt;font style=&quot;font-size: 18px;&quot;&gt;json_&lt;/font&gt;&lt;font style=&quot;color: rgb(204, 0, 0);&quot;&gt;&lt;b style=&quot;&quot;&gt;&lt;font style=&quot;font-size: 18px;&quot;&gt;n-1&lt;/font&gt;&lt;span style=&quot;font-size: 15px;&quot;&gt;&amp;nbsp; &amp;nbsp; &amp;nbsp; &amp;nbsp; &amp;nbsp; &amp;nbsp;&amp;nbsp;&lt;/span&gt;&lt;/b&gt;&lt;/font&gt;&lt;/font&gt;" style="ellipse;whiteSpace=wrap;html=1;aspect=fixed;fillColor=#CCFFE6;sketch=1;curveFitting=1;jiggle=2;opacity=30;fillStyle=solid;shadow=1;" parent="dW5WFOGfwR0lU1UXLjn_-1" vertex="1">
          <mxGeometry x="-2127" y="1529.52" width="139.48" height="139.48" as="geometry" />
        </mxCell>
        <mxCell id="PpwRb3DP2myml8ZpC41S-82" value="json_&lt;b&gt;&lt;font style=&quot;color: rgb(204, 0, 0);&quot;&gt;n&lt;/font&gt;&lt;/b&gt;" style="ellipse;whiteSpace=wrap;html=1;aspect=fixed;fillColor=#00CC00;sketch=1;curveFitting=1;jiggle=2;shadow=0;fontSize=23;" parent="dW5WFOGfwR0lU1UXLjn_-1" vertex="1">
          <mxGeometry x="-2041" y="1529" width="139.48" height="139.48" as="geometry" />
        </mxCell>
        <mxCell id="PpwRb3DP2myml8ZpC41S-83" value="" style="endArrow=classic;html=1;rounded=0;sketch=1;curveFitting=1;jiggle=2;strokeColor=#7F00FF;exitX=0.431;exitY=0.005;exitDx=0;exitDy=0;exitPerimeter=0;" parent="dW5WFOGfwR0lU1UXLjn_-1" source="PpwRb3DP2myml8ZpC41S-78" edge="1">
          <mxGeometry width="50" height="50" relative="1" as="geometry">
            <mxPoint x="-2066" y="1698" as="sourcePoint" />
            <mxPoint x="-2080" y="1618" as="targetPoint" />
          </mxGeometry>
        </mxCell>
        <mxCell id="PpwRb3DP2myml8ZpC41S-85" value="" style="endArrow=classic;html=1;rounded=0;entryX=0.43;entryY=0.634;entryDx=0;entryDy=0;entryPerimeter=0;endSize=6;sketch=1;curveFitting=1;jiggle=2;strokeColor=#990099;exitX=0.757;exitY=0.029;exitDx=0;exitDy=0;exitPerimeter=0;" parent="dW5WFOGfwR0lU1UXLjn_-1" source="PpwRb3DP2myml8ZpC41S-78" edge="1">
          <mxGeometry width="50" height="50" relative="1" as="geometry">
            <mxPoint x="-1970" y="1697" as="sourcePoint" />
            <mxPoint x="-1970" y="1617" as="targetPoint" />
          </mxGeometry>
        </mxCell>
        <mxCell id="SSSfKML2H5tBRjRLAjbq-0" style="edgeStyle=orthogonalEdgeStyle;rounded=0;orthogonalLoop=1;jettySize=auto;html=1;entryX=0.5;entryY=0;entryDx=0;entryDy=0;sketch=1;curveFitting=1;jiggle=2;strokeColor=#00CC00;" edge="1" source="SSSfKML2H5tBRjRLAjbq-1" target="SSSfKML2H5tBRjRLAjbq-3" parent="dW5WFOGfwR0lU1UXLjn_-1">
          <mxGeometry relative="1" as="geometry" />
        </mxCell>
        <mxCell id="SSSfKML2H5tBRjRLAjbq-1" value="61 fichiers&amp;nbsp;&lt;div&gt;.json&amp;nbsp;&lt;span style=&quot;background-color: transparent; color: light-dark(rgb(0, 0, 0), rgb(255, 255, 255));&quot;&gt;récupérés par API&lt;/span&gt;&lt;/div&gt;" style="text;html=1;align=center;verticalAlign=middle;whiteSpace=wrap;rounded=0;fontSize=13;strokeColor=default;sketch=1;curveFitting=1;jiggle=2;" vertex="1" parent="dW5WFOGfwR0lU1UXLjn_-1">
          <mxGeometry x="-3752" y="1443.5" width="151" height="34" as="geometry" />
        </mxCell>
        <mxCell id="SSSfKML2H5tBRjRLAjbq-2" style="edgeStyle=orthogonalEdgeStyle;rounded=0;orthogonalLoop=1;jettySize=auto;html=1;entryX=0.5;entryY=0;entryDx=0;entryDy=0;curved=0;sketch=1;curveFitting=1;jiggle=2;strokeColor=#D79B00;" edge="1" source="SSSfKML2H5tBRjRLAjbq-3" target="SSSfKML2H5tBRjRLAjbq-5" parent="dW5WFOGfwR0lU1UXLjn_-1">
          <mxGeometry relative="1" as="geometry" />
        </mxCell>
        <mxCell id="SSSfKML2H5tBRjRLAjbq-3" value="1 fichier .json&amp;nbsp;&lt;div&gt;avec toutes les offres&lt;/div&gt;" style="text;html=1;align=center;verticalAlign=middle;whiteSpace=wrap;rounded=0;fontSize=13;strokeColor=default;sketch=1;curveFitting=1;jiggle=2;" vertex="1" parent="dW5WFOGfwR0lU1UXLjn_-1">
          <mxGeometry x="-3741" y="1551" width="129" height="34" as="geometry" />
        </mxCell>
        <mxCell id="SSSfKML2H5tBRjRLAjbq-4" value="DAG 1" style="text;html=1;align=center;verticalAlign=middle;whiteSpace=wrap;rounded=1;fontSize=16;fillColor=#d5e8d4;strokeColor=#00CC00;sketch=1;curveFitting=1;jiggle=2;shadow=1;" vertex="1" parent="dW5WFOGfwR0lU1UXLjn_-1">
          <mxGeometry x="-3660" y="1491" width="53" height="30" as="geometry" />
        </mxCell>
        <mxCell id="SSSfKML2H5tBRjRLAjbq-5" value="base de données avec 2000 offres" style="text;html=1;align=center;verticalAlign=middle;whiteSpace=wrap;rounded=0;fontSize=13;strokeColor=default;sketch=1;curveFitting=1;jiggle=2;" vertex="1" parent="dW5WFOGfwR0lU1UXLjn_-1">
          <mxGeometry x="-3722" y="1654" width="91" height="46" as="geometry" />
        </mxCell>
        <mxCell id="SSSfKML2H5tBRjRLAjbq-6" value="DAG 2" style="text;html=1;align=center;verticalAlign=middle;whiteSpace=wrap;rounded=1;fontSize=16;fillColor=#ffe6cc;strokeColor=#d79b00;glass=0;sketch=1;curveFitting=1;jiggle=2;shadow=1;" vertex="1" parent="dW5WFOGfwR0lU1UXLjn_-1">
          <mxGeometry x="-3662" y="1606" width="54" height="30" as="geometry" />
        </mxCell>
        <mxCell id="SSSfKML2H5tBRjRLAjbq-7" value="" style="rounded=1;whiteSpace=wrap;html=1;fillColor=none;shadow=1;dashed=1;strokeColor=#FF33FF;strokeWidth=1;" vertex="1" parent="dW5WFOGfwR0lU1UXLjn_-1">
          <mxGeometry x="-2673" y="1518" width="166" height="113" as="geometry" />
        </mxCell>
        <mxCell id="SSSfKML2H5tBRjRLAjbq-8" value="json_&lt;font style=&quot;color: rgb(204, 0, 0);&quot;&gt;3&lt;/font&gt;" style="shape=table;startSize=20;container=0;collapsible=0;childLayout=tableLayout;fixedRows=0;rowLines=1;fontStyle=1;align=center;resizeLast=0;html=1;sketch=1;curveFitting=1;jiggle=2;rounded=0;shadow=1;columnLines=1;swimlaneHead=1;swimlaneBody=1;horizontal=1;top=0;bottom=0;left=0;right=0;connectable=1;allowArrows=0;dropTarget=0;expand=0;editable=1;movable=1;resizable=1;rotatable=1;deletable=1;locked=0;fillColor=#e1d5e7;strokeColor=#9673a6;fontSize=13;" vertex="1" parent="dW5WFOGfwR0lU1UXLjn_-1">
          <mxGeometry x="-2663" y="1527" width="146" height="96.75428571428579" as="geometry" />
        </mxCell>
        <mxCell id="SSSfKML2H5tBRjRLAjbq-9" value="" style="shape=tableRow;horizontal=0;startSize=0;swimlaneHead=0;swimlaneBody=0;fillColor=none;collapsible=0;dropTarget=0;points=[[0,0.5],[1,0.5]];portConstraint=eastwest;top=0;left=0;right=0;bottom=0;labelBackgroundColor=none;labelBorderColor=none;" vertex="1" parent="SSSfKML2H5tBRjRLAjbq-8">
          <mxGeometry y="20" width="146" height="27" as="geometry" />
        </mxCell>
        <mxCell id="SSSfKML2H5tBRjRLAjbq-10" value="&lt;strike&gt;&lt;font style=&quot;font-size: 10px;&quot;&gt;offres 1-1000&lt;/font&gt;&lt;/strike&gt;" style="shape=partialRectangle;connectable=0;fillColor=none;top=0;left=0;bottom=0;right=0;editable=1;overflow=hidden;whiteSpace=wrap;html=1;recursiveResize=1;expand=1;part=0;fixedWidth=0;comic=0;fontSize=8;textShadow=0;labelBackgroundColor=none;" vertex="1" parent="SSSfKML2H5tBRjRLAjbq-9">
          <mxGeometry width="82" height="27" as="geometry">
            <mxRectangle width="82" height="27" as="alternateBounds" />
          </mxGeometry>
        </mxCell>
        <mxCell id="SSSfKML2H5tBRjRLAjbq-11" value="&lt;strike&gt;&lt;font style=&quot;font-size: 10px;&quot;&gt;ne sont plus disponibles&lt;/font&gt;&lt;/strike&gt;" style="shape=partialRectangle;connectable=0;fillColor=none;top=0;left=0;bottom=0;right=0;align=center;spacingLeft=6;overflow=hidden;whiteSpace=wrap;html=1;fontSize=8;" vertex="1" parent="SSSfKML2H5tBRjRLAjbq-9">
          <mxGeometry x="82" width="64" height="27" as="geometry">
            <mxRectangle width="64" height="27" as="alternateBounds" />
          </mxGeometry>
        </mxCell>
        <mxCell id="SSSfKML2H5tBRjRLAjbq-12" value="" style="shape=tableRow;horizontal=0;startSize=0;swimlaneHead=0;swimlaneBody=0;fillColor=none;collapsible=0;dropTarget=0;points=[[0,0.5],[1,0.5]];portConstraint=eastwest;top=0;left=0;right=0;bottom=0;" vertex="1" parent="SSSfKML2H5tBRjRLAjbq-8">
          <mxGeometry y="47" width="146" height="26" as="geometry" />
        </mxCell>
        <mxCell id="SSSfKML2H5tBRjRLAjbq-13" value="&lt;font style=&quot;font-size: 10px;&quot;&gt;offres 1001-3000&lt;/font&gt;" style="shape=partialRectangle;connectable=0;fillColor=none;top=0;left=0;bottom=0;right=0;editable=1;overflow=hidden;whiteSpace=wrap;html=1;" vertex="1" parent="SSSfKML2H5tBRjRLAjbq-12">
          <mxGeometry width="82" height="26" as="geometry">
            <mxRectangle width="82" height="26" as="alternateBounds" />
          </mxGeometry>
        </mxCell>
        <mxCell id="SSSfKML2H5tBRjRLAjbq-14" value="&lt;font style=&quot;font-size: 10px;&quot;&gt;toujours disponibles&lt;/font&gt;" style="shape=partialRectangle;connectable=0;fillColor=none;top=0;left=0;bottom=0;right=0;align=center;spacingLeft=6;overflow=hidden;whiteSpace=wrap;html=1;fontSize=8;" vertex="1" parent="SSSfKML2H5tBRjRLAjbq-12">
          <mxGeometry x="82" width="64" height="26" as="geometry">
            <mxRectangle width="64" height="26" as="alternateBounds" />
          </mxGeometry>
        </mxCell>
        <mxCell id="SSSfKML2H5tBRjRLAjbq-15" value="" style="shape=tableRow;horizontal=0;startSize=0;swimlaneHead=0;swimlaneBody=0;fillColor=none;collapsible=0;dropTarget=0;points=[[0,0.5],[1,0.5]];portConstraint=eastwest;top=0;left=0;right=0;bottom=0;" vertex="1" parent="SSSfKML2H5tBRjRLAjbq-8">
          <mxGeometry y="73" width="146" height="24" as="geometry" />
        </mxCell>
        <mxCell id="SSSfKML2H5tBRjRLAjbq-16" value="&lt;font style=&quot;font-size: 10px;&quot;&gt;offres 3001-3050&lt;/font&gt;" style="shape=partialRectangle;connectable=0;fillColor=none;top=0;left=0;bottom=0;right=0;editable=1;overflow=hidden;whiteSpace=wrap;html=1;" vertex="1" parent="SSSfKML2H5tBRjRLAjbq-15">
          <mxGeometry width="82" height="24" as="geometry">
            <mxRectangle width="82" height="24" as="alternateBounds" />
          </mxGeometry>
        </mxCell>
        <mxCell id="SSSfKML2H5tBRjRLAjbq-17" value="&lt;font style=&quot;font-size: 10px;&quot;&gt;nouveau&lt;/font&gt;" style="shape=partialRectangle;connectable=0;fillColor=none;top=0;left=0;bottom=0;right=0;align=center;spacingLeft=6;overflow=hidden;whiteSpace=wrap;html=1;fontSize=8;" vertex="1" parent="SSSfKML2H5tBRjRLAjbq-15">
          <mxGeometry x="82" width="64" height="24" as="geometry">
            <mxRectangle width="64" height="24" as="alternateBounds" />
          </mxGeometry>
        </mxCell>
        <mxCell id="SSSfKML2H5tBRjRLAjbq-19" value="json_&lt;font style=&quot;color: rgb(204, 0, 0);&quot;&gt;3&lt;/font&gt;" style="shape=table;startSize=20;container=0;collapsible=0;childLayout=tableLayout;fixedRows=0;rowLines=1;fontStyle=1;align=center;resizeLast=0;html=1;sketch=1;curveFitting=1;jiggle=2;rounded=0;shadow=1;columnLines=1;swimlaneHead=1;swimlaneBody=1;horizontal=1;top=0;bottom=0;left=0;right=0;connectable=1;allowArrows=0;dropTarget=0;expand=0;editable=1;movable=1;resizable=1;rotatable=1;deletable=1;locked=0;fillColor=#e1d5e7;strokeColor=#FF33FF;fontSize=13;" vertex="1" parent="dW5WFOGfwR0lU1UXLjn_-1">
          <mxGeometry x="-2428" y="1526.5" width="163" height="104" as="geometry" />
        </mxCell>
        <mxCell id="SSSfKML2H5tBRjRLAjbq-20" value="" style="shape=tableRow;horizontal=0;startSize=0;swimlaneHead=0;swimlaneBody=0;fillColor=none;collapsible=0;dropTarget=0;points=[[0,0.5],[1,0.5]];portConstraint=eastwest;top=0;left=0;right=0;bottom=0;labelBackgroundColor=none;labelBorderColor=none;" vertex="1" parent="SSSfKML2H5tBRjRLAjbq-19">
          <mxGeometry y="20" width="163" height="32" as="geometry" />
        </mxCell>
        <mxCell id="SSSfKML2H5tBRjRLAjbq-21" value="&lt;font style=&quot;font-size: 10px;&quot;&gt;offres 1-1000&lt;/font&gt;" style="shape=partialRectangle;connectable=0;fillColor=none;top=0;left=0;bottom=0;right=0;editable=1;overflow=hidden;whiteSpace=wrap;html=1;recursiveResize=1;expand=1;part=0;fixedWidth=0;comic=0;fontSize=8;textShadow=0;labelBackgroundColor=none;" vertex="1" parent="SSSfKML2H5tBRjRLAjbq-20">
          <mxGeometry width="86" height="32" as="geometry">
            <mxRectangle width="86" height="32" as="alternateBounds" />
          </mxGeometry>
        </mxCell>
        <mxCell id="SSSfKML2H5tBRjRLAjbq-22" value="&lt;font style=&quot;font-size: 10px;&quot;&gt;de &quot;json_2&quot;&lt;/font&gt;" style="shape=partialRectangle;connectable=0;fillColor=none;top=0;left=0;bottom=0;right=0;align=center;spacingLeft=6;overflow=hidden;whiteSpace=wrap;html=1;fontSize=8;" vertex="1" parent="SSSfKML2H5tBRjRLAjbq-20">
          <mxGeometry x="86" width="77" height="32" as="geometry">
            <mxRectangle width="77" height="32" as="alternateBounds" />
          </mxGeometry>
        </mxCell>
        <mxCell id="SSSfKML2H5tBRjRLAjbq-23" value="" style="shape=tableRow;horizontal=0;startSize=0;swimlaneHead=0;swimlaneBody=0;fillColor=none;collapsible=0;dropTarget=0;points=[[0,0.5],[1,0.5]];portConstraint=eastwest;top=0;left=0;right=0;bottom=0;fontSize=12;" vertex="1" parent="SSSfKML2H5tBRjRLAjbq-19">
          <mxGeometry y="52" width="163" height="26" as="geometry" />
        </mxCell>
        <mxCell id="SSSfKML2H5tBRjRLAjbq-24" value="&lt;font style=&quot;font-size: 10px;&quot;&gt;offres 1001-3000&lt;/font&gt;" style="shape=partialRectangle;connectable=0;fillColor=none;top=0;left=0;bottom=0;right=0;editable=1;overflow=hidden;whiteSpace=wrap;html=1;" vertex="1" parent="SSSfKML2H5tBRjRLAjbq-23">
          <mxGeometry width="86" height="26" as="geometry">
            <mxRectangle width="86" height="26" as="alternateBounds" />
          </mxGeometry>
        </mxCell>
        <mxCell id="SSSfKML2H5tBRjRLAjbq-25" value="de &quot;json_3&quot;&amp;nbsp;&lt;span style=&quot;background-color: transparent; color: light-dark(rgb(0, 0, 0), rgb(255, 255, 255));&quot;&gt;car attributs à jour&lt;/span&gt;" style="shape=partialRectangle;connectable=0;fillColor=none;top=0;left=0;bottom=0;right=0;align=center;spacingLeft=6;overflow=hidden;whiteSpace=wrap;html=1;fontSize=10;" vertex="1" parent="SSSfKML2H5tBRjRLAjbq-23">
          <mxGeometry x="86" width="77" height="26" as="geometry">
            <mxRectangle width="77" height="26" as="alternateBounds" />
          </mxGeometry>
        </mxCell>
        <mxCell id="SSSfKML2H5tBRjRLAjbq-26" value="" style="shape=tableRow;horizontal=0;startSize=0;swimlaneHead=0;swimlaneBody=0;fillColor=none;collapsible=0;dropTarget=0;points=[[0,0.5],[1,0.5]];portConstraint=eastwest;top=0;left=0;right=0;bottom=0;" vertex="1" parent="SSSfKML2H5tBRjRLAjbq-19">
          <mxGeometry y="78" width="163" height="26" as="geometry" />
        </mxCell>
        <mxCell id="SSSfKML2H5tBRjRLAjbq-27" value="&lt;font style=&quot;font-size: 10px;&quot;&gt;offres 3001-3050&lt;/font&gt;" style="shape=partialRectangle;connectable=0;fillColor=none;top=0;left=0;bottom=0;right=0;editable=1;overflow=hidden;whiteSpace=wrap;html=1;" vertex="1" parent="SSSfKML2H5tBRjRLAjbq-26">
          <mxGeometry width="86" height="26" as="geometry">
            <mxRectangle width="86" height="26" as="alternateBounds" />
          </mxGeometry>
        </mxCell>
        <mxCell id="SSSfKML2H5tBRjRLAjbq-28" value="&lt;font style=&quot;font-size: 10px;&quot;&gt;de &quot;json_3&quot;&lt;/font&gt;" style="shape=partialRectangle;connectable=0;fillColor=none;top=0;left=0;bottom=0;right=0;align=center;spacingLeft=6;overflow=hidden;whiteSpace=wrap;html=1;fontSize=8;" vertex="1" parent="SSSfKML2H5tBRjRLAjbq-26">
          <mxGeometry x="86" width="77" height="26" as="geometry">
            <mxRectangle width="77" height="26" as="alternateBounds" />
          </mxGeometry>
        </mxCell>
        <mxCell id="SSSfKML2H5tBRjRLAjbq-29" style="edgeStyle=orthogonalEdgeStyle;rounded=0;orthogonalLoop=1;jettySize=auto;html=1;entryX=0.5;entryY=0;entryDx=0;entryDy=0;sketch=1;curveFitting=1;jiggle=2;strokeColor=#00CC00;" edge="1" source="SSSfKML2H5tBRjRLAjbq-30" target="SSSfKML2H5tBRjRLAjbq-32" parent="dW5WFOGfwR0lU1UXLjn_-1">
          <mxGeometry relative="1" as="geometry" />
        </mxCell>
        <mxCell id="SSSfKML2H5tBRjRLAjbq-30" value="61 &lt;font style=&quot;color: rgb(0, 0, 255);&quot;&gt;&lt;b&gt;nouveaux&lt;/b&gt;&lt;/font&gt; fichiers&amp;nbsp;&lt;div&gt;.json&amp;nbsp;&lt;span style=&quot;background-color: transparent; color: light-dark(rgb(0, 0, 0), rgb(255, 255, 255));&quot;&gt;récupérés par API&lt;/span&gt;&lt;/div&gt;" style="text;html=1;align=center;verticalAlign=middle;whiteSpace=wrap;rounded=0;fontSize=13;strokeColor=default;sketch=1;curveFitting=1;jiggle=2;" vertex="1" parent="dW5WFOGfwR0lU1UXLjn_-1">
          <mxGeometry x="-2829" y="1448.13" width="151" height="34" as="geometry" />
        </mxCell>
        <mxCell id="SSSfKML2H5tBRjRLAjbq-31" style="edgeStyle=orthogonalEdgeStyle;rounded=0;orthogonalLoop=1;jettySize=auto;html=1;entryX=0.5;entryY=0;entryDx=0;entryDy=0;curved=0;sketch=1;curveFitting=1;jiggle=2;strokeColor=#D79B00;" edge="1" source="SSSfKML2H5tBRjRLAjbq-32" target="SSSfKML2H5tBRjRLAjbq-34" parent="dW5WFOGfwR0lU1UXLjn_-1">
          <mxGeometry relative="1" as="geometry" />
        </mxCell>
        <mxCell id="SSSfKML2H5tBRjRLAjbq-32" value="1 fichier .json&amp;nbsp;&lt;div&gt;avec toutes les offres&lt;/div&gt;" style="text;html=1;align=center;verticalAlign=middle;whiteSpace=wrap;rounded=0;fontSize=13;strokeColor=default;sketch=1;curveFitting=1;jiggle=2;" vertex="1" parent="dW5WFOGfwR0lU1UXLjn_-1">
          <mxGeometry x="-2818" y="1555.63" width="129" height="34" as="geometry" />
        </mxCell>
        <mxCell id="SSSfKML2H5tBRjRLAjbq-33" value="DAG 1" style="text;html=1;align=center;verticalAlign=middle;whiteSpace=wrap;rounded=1;fontSize=16;fillColor=#d5e8d4;strokeColor=#00CC00;sketch=1;curveFitting=1;jiggle=2;shadow=1;" vertex="1" parent="dW5WFOGfwR0lU1UXLjn_-1">
          <mxGeometry x="-2737" y="1495.63" width="53" height="30" as="geometry" />
        </mxCell>
        <mxCell id="SSSfKML2H5tBRjRLAjbq-34" value="base de données avec 3050 offres" style="text;html=1;align=center;verticalAlign=middle;whiteSpace=wrap;rounded=0;fontSize=13;strokeColor=default;sketch=1;curveFitting=1;jiggle=2;" vertex="1" parent="dW5WFOGfwR0lU1UXLjn_-1">
          <mxGeometry x="-2799" y="1654.63" width="91" height="46" as="geometry" />
        </mxCell>
        <mxCell id="SSSfKML2H5tBRjRLAjbq-35" value="DAG 2" style="text;html=1;align=center;verticalAlign=middle;whiteSpace=wrap;rounded=1;fontSize=16;fillColor=#ffe6cc;strokeColor=#d79b00;glass=0;sketch=1;curveFitting=1;jiggle=2;shadow=1;" vertex="1" parent="dW5WFOGfwR0lU1UXLjn_-1">
          <mxGeometry x="-2739" y="1609.63" width="54" height="30" as="geometry" />
        </mxCell>
      </root>
    </mxGraphModel>
  </diagram>
</mxfile>
